<svg width="189" height="136" viewBox="0 0 189 136" fill="none" xmlns="http://www.w3.org/2000/svg">
<path d="M128.9 122.845C133.757 129.119 139.625 136 139.625 136C175.24 134.786 189 111.31 189 111.31C189 59.0957 165.729 17.0007 165.729 17.0007C142.458 -0.403961 120.199 0.00079953 120.199 0.00079953L117.973 2.63174C145.494 11.1317 158.242 23.2745 158.242 23.2745C141.446 13.965 125.056 9.31027 109.677 7.69123C97.94 6.27457 86.8105 6.67933 76.8951 7.89361C75.8833 7.89361 75.0739 8.09599 74.0621 8.29837C68.3961 8.70313 54.636 10.9293 37.4358 18.4174C31.3651 21.2507 27.9251 23.0721 27.9251 23.0721C27.9251 23.0721 41.2805 10.3222 70.4197 1.82222L68.8009 0.00079953C68.8009 0.00079953 46.5418 -0.403961 23.2709 17.0007C23.2709 17.0007 0 59.2981 0 111.31C0 111.31 13.5578 134.786 49.3747 136C49.3747 136 55.4454 128.714 60.3019 122.643C39.6617 116.572 31.9722 103.619 31.9722 103.619C31.9722 103.619 33.591 104.631 36.424 106.25C36.6263 106.453 36.8287 106.655 37.0311 106.655C37.6381 107.06 38.0428 107.262 38.4475 107.464C42.4946 109.691 46.5418 111.512 50.1842 112.929C56.8619 115.56 64.7537 118.191 74.0621 119.81C86.2034 122.036 100.368 122.845 115.95 120.012C123.639 118.798 131.531 116.572 139.625 113.131C145.291 111.107 151.564 107.869 158.242 103.619C158.242 103.619 150.148 116.976 128.9 122.845ZM64.349 96.3336C55.243 96.3336 47.7559 88.2384 47.7559 78.3218C47.7559 68.4052 55.0407 60.31 64.349 60.31C73.6574 60.31 80.9422 68.4052 80.7398 78.3218C80.7398 88.2384 73.455 96.3336 64.349 96.3336ZM123.437 96.3336C114.331 96.3336 106.844 88.2384 106.844 78.3218C106.844 68.4052 114.128 60.31 123.437 60.31C132.745 60.31 140.03 68.4052 140.03 78.3218C139.828 88.2384 132.543 96.3336 123.437 96.3336Z" fill="url(#paint0_linear_376_425)"/>
<defs>
<linearGradient id="paint0_linear_376_425" x1="0" y1="136" x2="128.954" y2="-43.2078" gradientUnits="userSpaceOnUse">
<stop stop-color="#8B42AE"/>
<stop offset="0.530804" stop-color="#E12F47"/>
<stop offset="1" stop-color="#E67011"/>
</linearGradient>
</defs>
</svg>
