<svg width="22" height="21" viewBox="0 0 22 21" fill="none" xmlns="http://www.w3.org/2000/svg">
<path d="M10.9373 1.89759C13.8275 1.89759 14.2216 1.89759 15.4039 1.89759C16.4549 1.89759 16.9804 2.1506 17.3745 2.27711C17.9 2.53012 18.2941 2.65663 18.6882 3.03615C19.0823 3.41566 19.3451 3.79518 19.4765 4.30121C19.6078 4.68072 19.7392 5.18675 19.8706 6.1988C19.8706 7.33735 19.8706 7.59036 19.8706 10.5C19.8706 13.4096 19.8706 13.6627 19.8706 14.8012C19.8706 14.9646 19.8637 15.1149 19.8517 15.2535C19.7653 16.2481 19.4073 17.2714 18.6882 17.9639C18.2941 18.3434 17.9 18.5964 17.3745 18.7229C16.9804 18.8494 16.4549 18.9759 15.4039 19.1024C14.2216 19.1024 13.9588 19.1024 10.9373 19.1024C7.91575 19.1024 7.653 19.1024 6.47066 19.1024C5.41969 19.1024 4.8942 18.8494 4.50008 18.7229C3.9746 18.4699 3.58048 18.3434 3.18637 17.9639C2.79225 17.5843 2.52951 17.2048 2.39814 16.6988C2.26677 16.3193 2.13539 15.8133 2.00402 14.8012C2.00402 13.6627 2.00402 13.4096 2.00402 10.5C2.00402 7.59036 2.00402 7.33735 2.00402 6.1988C2.00402 6.03536 2.01087 5.88512 2.02292 5.74648C2.10932 4.75193 2.46728 3.7286 3.18637 3.03615C3.58048 2.65663 3.9746 2.40361 4.50008 2.27711C4.8942 2.1506 5.41969 2.0241 6.47066 1.89759C7.653 1.89759 8.04712 1.89759 10.9373 1.89759ZM10.9373 0C7.91575 0 7.653 0 6.47066 0C5.28831 0 4.50008 0.253013 3.84323 0.506025C3.18637 0.759037 2.52951 1.13856 1.87265 1.77109C1.21579 2.40362 0.95305 2.90964 0.558935 3.66868C0.296191 4.30121 0.164819 5.06024 0.0334473 6.1988C0.0334473 7.33735 0.0334473 7.71687 0.0334473 10.5C0.0334473 13.4096 0.0334473 13.6627 0.0334473 14.8012C0.0334473 15.9398 0.296191 16.6988 0.558935 17.3313C0.821678 17.9639 1.21579 18.5964 1.87265 19.2289C2.52951 19.8614 3.055 20.1145 3.84323 20.494C4.50008 20.747 5.28831 20.8735 6.47066 21C7.653 21 8.04712 21 10.9373 21C13.8275 21 14.2216 21 15.4039 21C16.5863 21 17.3745 20.747 18.0314 20.494C18.6882 20.241 19.3451 19.8614 20.0019 19.2289C20.6588 18.5964 20.9215 18.0904 21.3157 17.3313C21.5784 16.6988 21.7098 15.9398 21.8411 14.8012C21.8411 13.6627 21.8411 13.2831 21.8411 10.5C21.8411 7.71687 21.8411 7.33735 21.8411 6.1988C21.8411 5.06024 21.5784 4.30121 21.3157 3.66868C21.0529 3.03615 20.6588 2.40362 20.0019 1.77109C19.3451 1.13856 18.8196 0.885543 18.0314 0.506025C17.3745 0.253013 16.5863 0.126506 15.4039 0C14.2216 0 13.9588 0 10.9373 0Z" fill="white"/>
<path d="M10.9373 5.06024C7.78437 5.06024 5.28831 7.46386 5.28831 10.5C5.28831 13.5361 7.78437 15.9398 10.9373 15.9398C14.0902 15.9398 16.5863 13.5361 16.5863 10.5C16.5863 7.46386 14.0902 5.06024 10.9373 5.06024ZM10.9373 14.0422C8.96672 14.0422 7.25889 12.5241 7.25889 10.5C7.25889 8.60241 8.83535 6.95783 10.9373 6.95783C12.9079 6.95783 14.6157 8.4759 14.6157 10.5C14.6157 12.3976 12.9079 14.0422 10.9373 14.0422Z" fill="white"/>
<path d="M16.7176 6.1988C17.4432 6.1988 18.0314 5.63241 18.0314 4.93374C18.0314 4.23506 17.4432 3.66868 16.7176 3.66868C15.9921 3.66868 15.4039 4.23506 15.4039 4.93374C15.4039 5.63241 15.9921 6.1988 16.7176 6.1988Z" fill="white"/>
</svg>
