<svg width="189" height="153" viewBox="0 0 189 153" fill="none" xmlns="http://www.w3.org/2000/svg">
<path d="M189 17.6538C181.913 21.1846 174.825 22.3615 166.556 23.5385C174.825 18.8308 180.731 11.7692 183.094 2.35384C176.006 7.06154 167.738 9.41538 158.287 11.7692C151.2 4.70769 140.569 0 129.938 0C105.131 0 86.2313 23.5385 92.1375 47.0769C60.2438 45.9 31.8938 30.6 11.8125 7.06154C1.18125 24.7154 7.0875 47.0769 23.625 58.8462C17.7188 58.8462 11.8125 56.4923 5.90625 54.1385C5.90625 71.7923 18.9 88.2692 36.6188 92.9769C30.7125 94.1538 24.8063 95.3308 18.9 94.1538C23.625 109.454 37.8 121.223 55.5187 121.223C41.3437 131.815 20.0813 137.7 0 135.346C17.7188 145.938 37.8 153 59.0625 153C131.119 153 171.281 92.9769 168.919 37.6615C177.187 32.9538 184.275 25.8923 189 17.6538Z" fill="url(#paint0_linear_376_426)"/>
<defs>
<linearGradient id="paint0_linear_376_426" x1="0" y1="153" x2="149.647" y2="-31.8575" gradientUnits="userSpaceOnUse">
<stop stop-color="#8B42AE"/>
<stop offset="0.530804" stop-color="#E12F47"/>
<stop offset="1" stop-color="#E67011"/>
</linearGradient>
</defs>
</svg>
