<svg width="27" height="21" viewBox="0 0 27 21" fill="none" xmlns="http://www.w3.org/2000/svg">
<path d="M26.0334 2.42308C25.0642 2.90769 24.0949 3.06923 22.9642 3.23077C24.0949 2.58462 24.9026 1.61538 25.2257 0.323077C24.2565 0.96923 23.1257 1.29231 21.8334 1.61538C20.8642 0.646154 19.4103 0 17.9565 0C14.5642 0 11.9796 3.23077 12.7873 6.46154C8.42572 6.3 4.54879 4.2 1.80264 0.969231C0.348794 3.39231 1.15649 6.46154 3.41803 8.07692C2.61033 8.07692 1.80264 7.75385 0.994948 7.43077C0.994948 9.85385 2.77187 12.1154 5.19495 12.7615C4.38726 12.9231 3.57956 13.0846 2.77187 12.9231C3.41803 15.0231 5.35649 16.6385 7.77956 16.6385C5.8411 18.0923 2.93341 18.9 0.187256 18.5769C2.61033 20.0308 5.35649 21 8.26418 21C18.118 21 23.6103 12.7615 23.2873 5.16923C24.418 4.52308 25.3873 3.55385 26.0334 2.42308Z" fill="white"/>
</svg>
