<svg width="189" height="133" viewBox="0 0 189 133" fill="none" xmlns="http://www.w3.org/2000/svg">
<path fill-rule="evenodd" clip-rule="evenodd" d="M178.695 10.1824C181.63 13.1313 183.745 16.8013 184.829 20.8269C191.072 46.075 189.629 85.9506 184.95 112.173C183.866 116.199 181.751 119.869 178.817 122.818C175.882 125.766 172.229 127.891 168.223 128.981C153.556 133 94.5256 133 94.5256 133C94.5256 133 35.495 133 20.8283 128.981C16.8219 127.891 13.1695 125.766 10.2346 122.818C7.29982 119.869 5.18505 116.199 4.10093 112.173C-2.17788 87.0346 -0.456656 47.1346 3.97973 20.9487C5.06383 16.9231 7.1786 13.2531 10.1134 10.3042C13.0482 7.35527 16.7007 5.23032 20.7071 4.14105C35.3738 0.121765 94.4044 0 94.4044 0C94.4044 0 153.435 0 168.102 4.01922C172.108 5.10856 175.761 7.2335 178.695 10.1824ZM124.586 66.5L75.6164 94.9999V37.9999L124.586 66.5Z" fill="url(#paint0_linear_376_450)"/>
<defs>
<linearGradient id="paint0_linear_376_450" x1="0" y1="133" x2="125.191" y2="-44.9028" gradientUnits="userSpaceOnUse">
<stop stop-color="#8B42AE"/>
<stop offset="0.530804" stop-color="#E12F47"/>
<stop offset="1" stop-color="#E67011"/>
</linearGradient>
</defs>
</svg>
